<svg width="500" height="47" viewBox="0 0 500 47" xmlns="http://www.w3.org/2000/svg"><title>Horizontal Logo</title><desc>Created with Sketch.</desc><g fill="#fff" fill-rule="nonzero"><g><path id="Shape" d="M37.933 37.262v-27.571h-6.951l-7.247 14.401-7.22-14.401h-7.005v27.571h6.439v-16.489l6.062 11.992h3.448l6.035-11.992v16.489zM43.267 9.69v27.571h19.91v-5.595h-13.471v-21.977zM78.183 22.86v4.631h5.415v.857c-2.021 2.302-4.284 3.453-6.789 3.453-1.105 0-2.101-.214-2.99-.616-.889-.402-1.67-.99-2.344-1.74-.647-.75-1.158-1.606-1.536-2.623-.377-1.017-.539-2.115-.539-3.293s.162-2.249.512-3.266.835-1.901 1.455-2.65c.62-.776 1.374-1.365 2.263-1.793.889-.428 1.859-.642 2.91-.642 1.374 0 2.667.348 3.853 1.017 1.185.696 2.101 1.66 2.721 2.891l4.796-3.56c-.97-1.874-2.425-3.319-4.364-4.417-1.94-1.071-4.203-1.606-6.789-1.606-1.967 0-3.799.375-5.496 1.098-1.697.723-3.179 1.713-4.418 2.945-1.239 1.231-2.209 2.704-2.91 4.39-.7 1.686-1.051 3.48-1.051 5.354 0 2.088.35 4.015 1.051 5.755.7 1.74 1.67 3.239 2.883 4.497 1.212 1.231 2.64 2.195 4.257 2.891 1.616.696 3.341 1.017 5.173 1.017 2.748 0 5.173-.964 7.301-2.864v7.04h-78.102v-36.137h76.27v-5.354h-81.659v46.845h88.825v-24.092h-10.696v-.027z"/></g><path d="M117.832 34.195v-16.936l-6.992 12.842h-2.047l-7.046-12.842v16.936h-3.722v-23.556h3.988l7.79 14.384 7.79-14.384h3.988v23.556zM133.285 10.638h3.267l9.345 23.556h-3.936l-2.517-6.408h-9.157l-2.463 6.408h-3.963l9.425-23.556zm5.435 14.41l-3.802-10.103-3.936 10.103h7.738zM151.211 17.604v16.59h-3.794v-23.556h2.981l13.714 16.989v-16.936h3.821v23.503h-3.144zM189.889 31.057c-2.017 2.083-4.331 3.138-6.94 3.138-1.587 0-3.066-.325-4.438-1.001-1.372-.676-2.555-1.569-3.551-2.678-.995-1.136-1.802-2.434-2.367-3.922s-.861-3.029-.861-4.652c0-1.623.296-3.165.861-4.625.565-1.461 1.372-2.732 2.367-3.841.995-1.109 2.206-1.975 3.577-2.624 1.399-.649 2.905-.974 4.519-.974 2.286 0 4.196.487 5.729 1.434 1.533.947 2.717 2.218 3.497 3.787l-2.878 2.083c-.646-1.298-1.533-2.272-2.69-2.948-1.13-.649-2.394-.974-3.766-.974-1.13 0-2.125.243-3.066.73-.915.487-1.695 1.136-2.34 1.92-.646.811-1.157 1.731-1.506 2.786-.35 1.055-.511 2.164-.511 3.3 0 1.217.188 2.353.592 3.408.403 1.055.941 1.975 1.614 2.759.672.784 1.506 1.406 2.421 1.866.941.46 1.964.703 3.066.703 1.21 0 2.367-.27 3.47-.838 1.103-.568 2.152-1.461 3.174-2.678v-2.57h-5.003v-2.813h8.15v12.117h-3.147v-2.894h.027zM205.94 34.195c-1.692 0-3.249-.352-4.645-1.029-1.396-.677-2.605-1.598-3.598-2.735-.993-1.137-1.772-2.437-2.336-3.899-.537-1.462-.832-2.952-.832-4.495 0-1.598.295-3.141.859-4.603.591-1.462 1.369-2.762 2.39-3.872 1.02-1.137 2.229-2.031 3.625-2.681 1.396-.677 2.927-1.002 4.565-1.002 1.692 0 3.249.352 4.645 1.056 1.396.704 2.578 1.652 3.571 2.789.993 1.137 1.772 2.437 2.309 3.899.537 1.462.832 2.924.832 4.441 0 1.598-.295 3.141-.859 4.603-.564 1.462-1.369 2.762-2.39 3.872-1.02 1.11-2.229 2.004-3.625 2.681-1.369.65-2.9.975-4.511.975zm-7.572-12.158c0 1.137.188 2.22.537 3.276.349 1.056.859 2.004 1.53 2.816.671.812 1.45 1.462 2.39 1.95.94.487 1.987.731 3.142.731 1.208 0 2.282-.244 3.195-.758.94-.514 1.718-1.164 2.363-2.004.644-.839 1.128-1.76 1.477-2.816.322-1.029.51-2.085.51-3.168 0-1.137-.188-2.247-.537-3.304-.349-1.056-.859-1.977-1.53-2.762-.671-.812-1.45-1.435-2.39-1.923-.94-.487-1.96-.731-3.088-.731-1.208 0-2.282.244-3.222.758s-1.718 1.164-2.39 1.977c-.644.812-1.155 1.733-1.504 2.789-.322 1.029-.483 2.085-.483 3.168zM234.439 15.681c-.211-.243-.529-.513-.951-.783-.423-.27-.899-.54-1.48-.783-.555-.243-1.163-.459-1.85-.594-.661-.162-1.348-.243-2.062-.243-1.559 0-2.722.297-3.436.864-.74.594-1.11 1.403-1.11 2.429 0 .594.106 1.053.344 1.43.238.378.581.702 1.084.972.476.27 1.084.54 1.824.729.714.216 1.559.432 2.537.702 1.189.297 2.247.621 3.225.972.951.351 1.771.81 2.432 1.322.661.513 1.163 1.16 1.533 1.889.37.756.555 1.673.555 2.753 0 1.214-.238 2.267-.687 3.131-.449.864-1.057 1.592-1.85 2.132-.793.54-1.692.945-2.722 1.214-1.031.27-2.141.378-3.33.378-1.771 0-3.489-.27-5.154-.837-1.665-.54-3.172-1.349-4.493-2.402l1.692-3.239c.291.297.687.621 1.242.972.529.351 1.163.702 1.877.999.714.297 1.48.567 2.326.783.846.216 1.692.324 2.617.324 1.454 0 2.564-.27 3.357-.783.793-.513 1.189-1.268 1.189-2.294 0-.594-.159-1.107-.449-1.511-.291-.405-.714-.756-1.269-1.053-.555-.297-1.216-.567-2.009-.837-.793-.243-1.692-.513-2.696-.783-1.163-.324-2.194-.648-3.04-.999-.872-.351-1.586-.756-2.167-1.268-.581-.486-1.004-1.08-1.295-1.727-.291-.675-.449-1.457-.449-2.402 0-1.16.211-2.213.661-3.104.449-.918 1.031-1.673 1.797-2.294s1.665-1.08 2.696-1.403c1.031-.324 2.141-.459 3.357-.459 1.586 0 3.04.27 4.387.783 1.348.513 2.511 1.16 3.515 1.916l-1.744 3.104zM240.122 34.195v-23.556h3.799v23.556zM252.275 17.604v16.59h-3.794v-23.556h2.981l13.714 16.989v-16.936h3.821v23.503h-3.144zM290.193 31.057c-2.017 2.083-4.331 3.138-6.94 3.138-1.587 0-3.066-.325-4.438-1.001-1.372-.676-2.555-1.569-3.551-2.678-.995-1.136-1.802-2.434-2.367-3.922s-.861-3.029-.861-4.652c0-1.623.296-3.165.861-4.625.565-1.461 1.372-2.732 2.367-3.841.995-1.109 2.206-1.975 3.577-2.624 1.399-.649 2.905-.974 4.519-.974 2.286 0 4.196.487 5.729 1.434 1.533.947 2.717 2.218 3.497 3.787l-2.878 2.083c-.646-1.298-1.533-2.272-2.69-2.948-1.13-.649-2.394-.974-3.766-.974-1.13 0-2.125.243-3.066.73-.915.487-1.695 1.136-2.34 1.92-.646.811-1.157 1.731-1.506 2.786-.35 1.055-.511 2.164-.511 3.3 0 1.217.188 2.353.592 3.408.403 1.055.941 1.975 1.614 2.759.672.784 1.506 1.406 2.421 1.866.941.46 1.964.703 3.066.703 1.21 0 2.367-.27 3.47-.838 1.103-.568 2.152-1.461 3.174-2.678v-2.57h-5.003v-2.813h8.15v12.117h-3.147v-2.894h.027zM306.231 34.195v-23.556h3.806v20.259h12.912v3.27h-16.717zM333.133 10.638h3.267l9.345 23.556h-3.936l-2.517-6.408h-9.157l-2.463 6.408h-3.963l9.425-23.556zm5.435 14.41l-3.802-10.103-3.936 10.103h7.738zM353.694 10.745h3.546l2.929 8.003 2.955-8.003h3.52l-4.057 10.475 3.546 8.667 7.415-19.249h4.111l-9.807 23.556h-3.224l-4.433-10.555-4.46 10.555h-3.224l-9.807-23.556h4.084l7.442 19.249 3.546-8.667zM404.935 31.057c-2.017 2.083-4.331 3.138-6.94 3.138-1.587 0-3.066-.325-4.438-1.001-1.372-.676-2.555-1.569-3.551-2.678-.995-1.136-1.802-2.434-2.367-3.922s-.861-3.029-.861-4.652c0-1.623.296-3.165.861-4.625.565-1.461 1.372-2.732 2.367-3.841.995-1.109 2.206-1.975 3.577-2.624 1.399-.649 2.905-.974 4.519-.974 2.286 0 4.196.487 5.729 1.434 1.533.947 2.717 2.218 3.497 3.787l-2.878 2.083c-.646-1.298-1.533-2.272-2.69-2.948-1.13-.649-2.394-.974-3.766-.974-1.13 0-2.125.243-3.066.73-.915.487-1.695 1.136-2.34 1.92-.646.811-1.157 1.731-1.506 2.786-.35 1.055-.511 2.164-.511 3.3 0 1.217.188 2.353.592 3.408.403 1.055.941 1.975 1.614 2.759.672.784 1.506 1.406 2.421 1.866.941.46 1.964.703 3.066.703 1.21 0 2.367-.27 3.47-.838 1.103-.568 2.152-1.461 3.174-2.678v-2.57h-5.003v-2.813h8.15v12.117h-3.147v-2.894h.027zM412.614 34.195v-23.556h10.523c1.093 0 2.105.213 3.007.665.929.452 1.722 1.01 2.378 1.728.656.718 1.175 1.542 1.558 2.446.383.931.574 1.861.574 2.792 0 .798-.109 1.569-.328 2.286-.219.718-.547 1.409-.957 2.021-.41.612-.902 1.143-1.503 1.595-.601.452-1.23.798-1.941 1.01l5.685 8.96h-4.319l-5.248-8.189h-5.603v8.189h-3.827v.053zm3.827-11.459h6.669c.547 0 1.039-.106 1.476-.346.437-.239.82-.558 1.148-.957.328-.399.574-.877.738-1.409.191-.532.273-1.09.273-1.702 0-.585-.109-1.17-.328-1.702-.219-.532-.492-.984-.847-1.383s-.765-.718-1.23-.957c-.465-.239-.957-.346-1.449-.346h-6.478v8.8h.027zM443.023 34.195c-1.692 0-3.249-.352-4.645-1.029-1.396-.677-2.605-1.598-3.598-2.735-.993-1.137-1.772-2.437-2.336-3.899-.537-1.462-.832-2.952-.832-4.495 0-1.598.295-3.141.859-4.603.591-1.462 1.369-2.762 2.39-3.872 1.02-1.137 2.229-2.031 3.625-2.681 1.396-.677 2.927-1.002 4.565-1.002 1.692 0 3.249.352 4.645 1.056 1.396.704 2.578 1.652 3.571 2.789.993 1.137 1.772 2.437 2.309 3.899.537 1.462.832 2.924.832 4.441 0 1.598-.295 3.141-.859 4.603-.564 1.462-1.369 2.762-2.39 3.872-1.02 1.11-2.229 2.004-3.625 2.681-1.369.65-2.873.975-4.511.975zm-7.572-12.158c0 1.137.188 2.22.537 3.276.349 1.056.859 2.004 1.53 2.816.671.812 1.45 1.462 2.39 1.95.94.487 1.987.731 3.142.731 1.208 0 2.282-.244 3.195-.758.94-.514 1.718-1.164 2.363-2.004.644-.839 1.128-1.76 1.477-2.816.322-1.029.51-2.085.51-3.168 0-1.137-.188-2.247-.537-3.304-.349-1.056-.859-1.977-1.53-2.762-.671-.812-1.45-1.435-2.39-1.923-.94-.487-1.96-.731-3.088-.731-1.208 0-2.282.244-3.222.758s-1.718 1.164-2.39 1.977c-.644.812-1.155 1.733-1.504 2.789-.295 1.029-.483 2.085-.483 3.168zM467.678 30.871c1.262 0 2.283-.237 3.115-.712.832-.475 1.504-1.108 1.987-1.899.51-.791.859-1.662 1.074-2.664.215-1.002.322-2.031.322-3.086v-11.844h3.786v11.844c0 1.609-.188 3.113-.564 4.537-.376 1.424-.994 2.664-1.799 3.719-.832 1.055-1.88 1.899-3.196 2.506-1.316.607-2.873.923-4.7.923-1.907 0-3.491-.317-4.807-.976-1.316-.659-2.363-1.504-3.169-2.611-.806-1.082-1.396-2.321-1.746-3.746-.349-1.398-.537-2.875-.537-4.379v-11.844h3.76v11.844c0 1.082.107 2.11.322 3.113.215 1.002.564 1.899 1.074 2.664.51.791 1.182 1.398 2.014 1.873.779.501 1.826.739 3.061.739zM482.523 34.195v-23.556h10.049c1.081 0 2.08.213 2.971.665.918.452 1.702 1.01 2.35 1.728.648.718 1.162 1.542 1.54 2.446.378.931.567 1.861.567 2.792 0 .984-.162 1.941-.513 2.871-.351.931-.837 1.728-1.459 2.446-.621.718-1.378 1.303-2.269 1.728-.891.425-1.864.638-2.944.638h-6.483v8.189h-3.809v.053zm3.782-11.459h6.24c.54 0 1.026-.106 1.459-.319.432-.213.81-.532 1.135-.931.324-.399.567-.851.729-1.383.189-.532.27-1.117.27-1.755 0-.665-.108-1.25-.297-1.781-.189-.532-.486-.984-.837-1.383s-.756-.691-1.243-.904c-.459-.213-.945-.319-1.432-.319h-6.024v8.774z"/></g></svg>