<?xml version="1.0" encoding="UTF-8"?>
<svg width="500px" height="47px" viewBox="0 0 500 47" version="1.1" xmlns="http://www.w3.org/2000/svg" xmlns:xlink="http://www.w3.org/1999/xlink">
    <!-- Generator: Sketch 48.2 (47327) - http://www.bohemiancoding.com/sketch -->
    <title>Horizontal Logo</title>
    <desc>Created with Sketch.</desc>
    <defs></defs>
    <g id="Home-Page-Desktop" stroke="none" stroke-width="1" fill="none" fill-rule="evenodd" transform="translate(-135.000000, -30.000000)">
        <g id="Hero-image" fill="#FFFFFF" fill-rule="nonzero">
            <g id="Header">
                <g id="Horizontal-Logo" transform="translate(135.000000, 30.000000)">
                    <g id="Group">
                        <polygon id="Shape" points="37.9331307 37.2616745 37.9331307 9.69017684 30.9823156 9.69017684 23.7351478 24.0915999 16.5149212 9.69017684 9.51022382 9.69017684 9.51022382 37.2616745 15.9491572 37.2616745 15.9491572 20.7723128 22.0109146 32.7645758 25.459381 32.7645758 31.4941973 20.7723128 31.4941973 37.2616745"></polygon>
                        <polygon id="Shape" points="43.2674772 9.69017684 43.2674772 37.2616745 63.1769826 37.2616745 63.1769826 31.6670696 49.7064106 31.6670696 49.7064106 9.69017684"></polygon>
                        <path d="M78.1831998,22.8602515 L78.1831998,27.4911923 L83.5983697,27.4911923 L83.5983697,28.3477825 C81.5777839,30.6498687 79.3147278,31.8009119 76.8092014,31.8009119 C75.7046145,31.8009119 74.7077922,31.5867643 73.8187345,31.1852376 C72.9296767,30.783711 72.1483835,30.1948052 71.4748549,29.4452888 C70.8282675,28.6957723 70.3163857,27.8391821 69.9392097,26.8219812 C69.5620337,25.8047803 69.4003868,24.7072741 69.4003868,23.5294626 C69.4003868,22.351651 69.5620337,21.2809132 69.9122686,20.2637124 C70.2625035,19.2465115 70.747444,18.3631528 71.3670904,17.6136364 C71.9867367,16.8373515 72.7410887,16.2484457 73.6301464,15.8201506 C74.5192042,15.3918555 75.4890854,15.1777079 76.53979,15.1777079 C77.9137883,15.1777079 79.2069632,15.5256977 80.3923736,16.1949088 C81.5777839,16.8908884 82.4937828,17.8545524 83.1134291,19.0859008 L87.9089527,15.5256977 C86.9390716,13.6519066 85.4842498,12.2064106 83.5444874,11.1089044 C81.6047251,10.0381666 79.341669,9.50279773 76.7553191,9.50279773 C74.7886156,9.50279773 72.9566179,9.87755595 71.2593258,10.600304 C69.5620337,11.3230519 68.0802708,12.3134844 66.8409782,13.5448328 C65.6016855,14.7761813 64.6318044,16.2484457 63.9313346,17.9348577 C63.2308649,19.6212697 62.88063,21.4147555 62.88063,23.2885466 C62.88063,25.3764852 63.2308649,27.3038132 63.9313346,29.0437621 C64.6318044,30.783711 65.6016855,32.2827439 66.814037,33.5408607 C68.0263885,34.7722092 69.4542691,35.7358732 71.0707378,36.4318527 C72.6872064,37.1278323 74.4114396,37.4490536 76.2434374,37.4490536 C78.9914341,37.4490536 81.4161371,36.4853896 83.5444874,34.5848301 L83.5444874,41.6249309 L5.44211108,41.6249309 L5.44211108,5.48753109 L81.7124896,5.48753109 L81.7124896,0.133842222 L0.0538822879,0.133842222 L0.0538822879,46.9786198 L88.8788339,46.9786198 L88.8788339,37.2884429 L88.8788339,33.192871 L88.8788339,22.8870199 L78.1831998,22.8870199 L78.1831998,22.8602515 Z" id="Shape"></path>
                    </g>
                    <polygon id="Shape" points="117.831756 34.1945289 117.831756 17.2585027 110.839331 30.100105 108.792119 30.100105 101.74652 17.2585027 101.74652 34.1945289 98.0243161 34.1945289 98.0243161 10.6382979 102.012391 10.6382979 109.802432 25.0219559 117.592472 10.6382979 121.580547 10.6382979 121.580547 34.1945289"></polygon>
                    <path d="M133.28526,10.6382979 L136.551906,10.6382979 L145.896657,34.1945289 L141.960616,34.1945289 L139.443691,27.7870213 L130.286372,27.7870213 L127.822999,34.1945289 L123.860182,34.1945289 L133.28526,10.6382979 Z M138.720745,25.048543 L134.918583,14.9454191 L130.982542,25.048543 L138.720745,25.048543 Z" id="Shape"></path>
                    <polygon id="Shape" points="151.210786 17.6041359 151.210786 34.1945289 147.416413 34.1945289 147.416413 10.6382979 150.397707 10.6382979 164.111655 27.6274983 164.111655 10.6914722 167.933131 10.6914722 167.933131 34.1945289 164.789222 34.1945289"></polygon>
                    <path d="M189.88891,31.0569664 C187.871533,33.1396587 185.558275,34.1945289 182.949135,34.1945289 C181.362133,34.1945289 179.882723,33.8699534 178.510907,33.1937546 C177.139091,32.5175558 175.955564,31.6249734 174.960325,30.5160073 C173.965086,29.3799933 173.158135,28.0816916 172.59327,26.5940542 C172.028405,25.1064168 171.732523,23.5646835 171.732523,21.9418063 C171.732523,20.3189292 172.028405,18.7771959 172.59327,17.3166064 C173.158135,15.856017 173.965086,14.5847632 174.960325,13.4757972 C175.955564,12.3668311 177.16599,11.5012966 178.537806,10.8521457 C179.93652,10.2029949 181.442828,9.87841945 183.056729,9.87841945 C185.343088,9.87841945 187.252871,10.3652826 188.786077,11.3119609 C190.319283,12.2586393 191.502811,13.5298931 192.282863,15.0986743 L189.404739,17.1813667 C188.759179,15.8830649 187.871533,14.9093386 186.714904,14.2331398 C185.585174,13.583989 184.320951,13.2594135 182.949135,13.2594135 C181.819404,13.2594135 180.824165,13.5028451 179.882723,13.9897083 C178.968179,14.4765714 178.188127,15.1257223 177.542567,15.9101129 C176.897006,16.7215515 176.385938,17.6411819 176.036259,18.696052 C175.68658,19.7509222 175.52519,20.8598882 175.52519,21.9959022 C175.52519,23.2130601 175.713479,24.3490741 176.116954,25.4039443 C176.520429,26.4588144 177.058396,27.3784448 177.730855,28.1628354 C178.403314,28.9472261 179.237163,29.569329 180.151707,30.0291442 C181.093149,30.4889594 182.115286,30.7323909 183.218119,30.7323909 C184.428545,30.7323909 185.585174,30.4619114 186.688006,29.8939044 C187.790838,29.3258974 188.839874,28.433315 189.862011,27.2161571 L189.862011,24.6466016 L184.858918,24.6466016 L184.858918,21.8336145 L193.009119,21.8336145 L193.009119,33.9510973 L189.862011,33.9510973 L189.862011,31.0569664 L189.88891,31.0569664 Z" id="Shape"></path>
                    <path d="M205.940477,34.1945289 C204.248875,34.1945289 202.691527,33.8425139 201.295284,33.1655621 C199.899041,32.4886103 198.690754,31.5679558 197.697273,30.4306767 C196.703792,29.2933977 195.925118,27.9936502 195.361251,26.5314343 C194.824234,25.0692183 194.528875,23.5799243 194.528875,22.0364742 C194.528875,20.4388679 194.824234,18.8954177 195.388102,17.4332018 C195.97882,15.9709858 196.757494,14.6712383 197.777826,13.5610374 C198.798157,12.4237583 200.006444,11.5301819 201.402687,10.8803081 C202.79893,10.2033563 204.329427,9.87841945 205.967328,9.87841945 C207.65893,9.87841945 209.216278,10.2304344 210.612521,10.9344643 C212.008764,11.6384942 213.190201,12.5862267 214.183681,13.7235058 C215.177162,14.8607849 215.955836,16.1605324 216.492852,17.6227483 C217.029869,19.0849642 217.325228,20.5471802 217.325228,22.0635522 C217.325228,23.6611585 217.029869,25.2046087 216.466001,26.6668246 C215.902134,28.1290406 215.096609,29.4287881 214.076278,30.538989 C213.055946,31.64919 211.847659,32.5427664 210.451416,33.2197183 C209.082024,33.869592 207.551527,34.1945289 205.940477,34.1945289 Z M198.368544,22.0364742 C198.368544,23.1737532 198.5565,24.2568761 198.90556,25.312921 C199.254621,26.3689658 199.764787,27.3166984 200.436057,28.1290406 C201.107328,28.9413827 201.886002,29.5912565 202.825781,30.0786618 C203.76556,30.5660671 204.812742,30.8097698 205.967328,30.8097698 C207.175615,30.8097698 208.249648,30.5660671 209.162576,30.0515837 C210.102355,29.5371003 210.881029,28.8872266 211.525449,28.0478063 C212.169869,27.2083861 212.653184,26.2877316 213.002245,25.2316868 C213.324455,24.20272 213.51241,23.1466752 213.51241,22.0635522 C213.51241,20.9262732 213.324455,19.8160722 212.975394,18.7600273 C212.626333,17.7039825 212.116167,16.783328 211.444897,15.9980639 C210.773626,15.1857217 209.994952,14.5629261 209.055173,14.0755207 C208.115394,13.5881154 207.095063,13.3444128 205.967328,13.3444128 C204.759041,13.3444128 203.685008,13.5881154 202.745229,14.1025988 C201.80545,14.6170822 201.026776,15.266956 200.355505,16.0792981 C199.711085,16.8916403 199.200919,17.8122948 198.851859,18.8683396 C198.529649,19.8973064 198.368544,20.9533512 198.368544,22.0364742 Z" id="Shape"></path>
                    <path d="M234.439011,15.6808207 C234.227567,15.4379295 233.9104,15.1680504 233.487512,14.8981712 C233.064623,14.6282921 232.588873,14.358413 232.007401,14.1155218 C231.452359,13.8726305 230.844456,13.6567272 230.157262,13.5217877 C229.496498,13.3598602 228.809304,13.2788965 228.095679,13.2788965 C226.536276,13.2788965 225.373332,13.5757635 224.659707,14.1425097 C223.919651,14.7362438 223.549623,15.5458811 223.549623,16.5714218 C223.549623,17.1651559 223.655346,17.6239504 223.893221,18.0017812 C224.131096,18.379612 224.474693,18.7034669 224.976873,18.9733461 C225.452623,19.2432252 226.060526,19.5131043 226.800581,19.7020197 C227.514206,19.917923 228.359984,20.1338263 229.337915,20.4037054 C230.52729,20.7005725 231.584512,21.0244274 232.562442,21.3752703 C233.513942,21.7261132 234.333289,22.1849077 234.994053,22.697678 C235.654817,23.2104484 236.156997,23.8581583 236.527025,24.5868319 C236.897053,25.3424935 237.082067,26.2600825 237.082067,27.339599 C237.082067,28.5540551 236.844192,29.6065837 236.394872,30.4701969 C235.945553,31.3338101 235.33765,32.0624838 234.544734,32.602242 C233.751817,33.1420003 232.853178,33.546819 231.822387,33.8166981 C230.791595,34.0865772 229.681512,34.1945289 228.492137,34.1945289 C226.72129,34.1945289 225.003304,33.9246497 223.338179,33.3579036 C221.673054,32.8181453 220.166512,32.0085079 218.844985,30.9559793 L220.53654,27.7174298 C220.827276,28.0142968 221.223735,28.3381518 221.778776,28.6889947 C222.307387,29.0398375 222.941721,29.3906804 223.655346,29.6875474 C224.368971,29.9844145 225.135457,30.2542936 225.981234,30.4701969 C226.827012,30.6861002 227.67279,30.7940519 228.597859,30.7940519 C230.05154,30.7940519 231.161623,30.5241727 231.954539,30.0114024 C232.747456,29.4986321 233.143914,28.7429705 233.143914,27.7174298 C233.143914,27.1236957 232.985331,26.6109254 232.694595,26.2061067 C232.403859,25.801288 231.98097,25.4504451 231.425928,25.1535781 C230.870887,24.8567111 230.210123,24.5868319 229.417206,24.3169528 C228.62429,24.0740616 227.725651,23.8041825 226.72129,23.5343033 C225.558345,23.2104484 224.527554,22.8865934 223.681776,22.5357506 C222.809568,22.1849077 222.095943,21.780089 221.514471,21.2673186 C220.932999,20.7815362 220.51011,20.1878021 220.219374,19.5400922 C219.928638,18.8653944 219.770054,18.0827449 219.770054,17.138168 C219.770054,15.9776877 219.981499,14.9251591 220.430818,14.034558 C220.880137,13.116969 221.46161,12.3613074 222.228096,11.7405854 C222.994582,11.1198634 223.893221,10.6610689 224.924012,10.337214 C225.954804,10.013359 227.064887,9.87841945 228.280692,9.87841945 C229.866526,9.87841945 231.320206,10.1482986 232.668164,10.6610689 C234.016123,11.1738393 235.179067,11.8215492 236.183428,12.5772107 L234.439011,15.6808207 Z" id="Shape"></path>
                    <polygon id="Shape" points="240.121581 34.1945289 240.121581 10.6382979 243.920973 10.6382979 243.920973 34.1945289"></polygon>
                    <polygon id="Shape" points="252.274616 17.6041359 252.274616 34.1945289 248.480243 34.1945289 248.480243 10.6382979 251.461536 10.6382979 265.175485 27.6274983 265.175485 10.6914722 268.99696 10.6914722 268.99696 34.1945289 265.853051 34.1945289"></polygon>
                    <path d="M290.192861,31.0569664 C288.175485,33.1396587 285.862227,34.1945289 283.253087,34.1945289 C281.666084,34.1945289 280.186675,33.8699534 278.814859,33.1937546 C277.443043,32.5175558 276.259515,31.6249734 275.264276,30.5160073 C274.269037,29.3799933 273.462087,28.0816916 272.897221,26.5940542 C272.332356,25.1064168 272.036474,23.5646835 272.036474,21.9418063 C272.036474,20.3189292 272.332356,18.7771959 272.897221,17.3166064 C273.462087,15.856017 274.269037,14.5847632 275.264276,13.4757972 C276.259515,12.3668311 277.469941,11.5012966 278.841757,10.8521457 C280.240471,10.2029949 281.746779,9.87841945 283.36068,9.87841945 C285.64704,9.87841945 287.556823,10.3652826 289.090029,11.3119609 C290.623235,12.2586393 291.806762,13.5298931 292.586814,15.0986743 L289.708691,17.1813667 C289.06313,15.8830649 288.175485,14.9093386 287.018856,14.2331398 C285.889125,13.583989 284.624902,13.2594135 283.253087,13.2594135 C282.123356,13.2594135 281.128117,13.5028451 280.186675,13.9897083 C279.272131,14.4765714 278.492078,15.1257223 277.846518,15.9101129 C277.200958,16.7215515 276.689889,17.6411819 276.34021,18.696052 C275.990532,19.7509222 275.829142,20.8598882 275.829142,21.9959022 C275.829142,23.2130601 276.01743,24.3490741 276.420905,25.4039443 C276.824381,26.4588144 277.362348,27.3784448 278.034806,28.1628354 C278.707265,28.9472261 279.541114,29.569329 280.455658,30.0291442 C281.3971,30.4889594 282.419238,30.7323909 283.52207,30.7323909 C284.732496,30.7323909 285.889125,30.4619114 286.991957,29.8939044 C288.09479,29.3258974 289.143825,28.433315 290.165963,27.2161571 L290.165963,24.6466016 L285.16287,24.6466016 L285.16287,21.8336145 L293.31307,21.8336145 L293.31307,33.9510973 L290.165963,33.9510973 L290.165963,31.0569664 L290.192861,31.0569664 Z" id="Shape"></path>
                    <polygon id="Shape" points="306.231003 34.1945289 306.231003 10.6382979 310.036573 10.6382979 310.036573 30.89772 322.948328 30.89772 322.948328 34.1679417 306.231003 34.1679417"></polygon>
                    <path d="M333.133284,10.6382979 L336.399931,10.6382979 L345.744681,34.1945289 L341.80864,34.1945289 L339.291716,27.7870213 L330.134396,27.7870213 L327.671023,34.1945289 L323.708207,34.1945289 L333.133284,10.6382979 Z M338.568769,25.048543 L334.766607,14.9454191 L330.830567,25.048543 L338.568769,25.048543 Z" id="Shape"></path>
                    <polygon id="Shape" points="353.693909 10.7446465 357.240397 10.7446465 360.168937 18.7473842 363.124344 10.7446465 366.643966 10.7446465 362.586998 21.2199908 366.133486 29.8874076 373.548872 10.6382979 377.659574 10.6382979 367.852996 34.1945289 364.628915 34.1945289 360.195804 23.6394231 355.735826 34.1945289 352.511746 34.1945289 342.705167 10.6382979 346.789003 10.6382979 354.231255 29.8874076 357.777744 21.2199908"></polygon>
                    <path d="M404.934503,31.0569664 C402.917126,33.1396587 400.603868,34.1945289 397.994728,34.1945289 C396.407725,34.1945289 394.928316,33.8699534 393.5565,33.1937546 C392.184684,32.5175558 391.001157,31.6249734 390.005918,30.5160073 C389.010679,29.3799933 388.203728,28.0816916 387.638863,26.5940542 C387.073997,25.1064168 386.778116,23.5646835 386.778116,21.9418063 C386.778116,20.3189292 387.073997,18.7771959 387.638863,17.3166064 C388.203728,15.856017 389.010679,14.5847632 390.005918,13.4757972 C391.001157,12.3668311 392.211582,11.5012966 393.583398,10.8521457 C394.982113,10.2029949 396.48842,9.87841945 398.102321,9.87841945 C400.388681,9.87841945 402.298464,10.3652826 403.83167,11.3119609 C405.364876,12.2586393 406.548404,13.5298931 407.328456,15.0986743 L404.450332,17.1813667 C403.804772,15.8830649 402.917126,14.9093386 401.760497,14.2331398 C400.630766,13.583989 399.366544,13.2594135 397.994728,13.2594135 C396.864997,13.2594135 395.869758,13.5028451 394.928316,13.9897083 C394.013772,14.4765714 393.23372,15.1257223 392.588159,15.9101129 C391.942599,16.7215515 391.43153,17.6411819 391.081852,18.696052 C390.732173,19.7509222 390.570783,20.8598882 390.570783,21.9959022 C390.570783,23.2130601 390.759071,24.3490741 391.162547,25.4039443 C391.566022,26.4588144 392.103989,27.3784448 392.776448,28.1628354 C393.448907,28.9472261 394.282755,29.569329 395.197299,30.0291442 C396.138742,30.4889594 397.160879,30.7323909 398.263711,30.7323909 C399.474137,30.7323909 400.630766,30.4619114 401.733599,29.8939044 C402.836431,29.3258974 403.885467,28.433315 404.907604,27.2161571 L404.907604,24.6466016 L399.904511,24.6466016 L399.904511,21.8336145 L408.054711,21.8336145 L408.054711,33.9510973 L404.907604,33.9510973 L404.907604,31.0569664 L404.934503,31.0569664 Z" id="Shape"></path>
                    <path d="M412.613982,34.1945289 L412.613982,10.6382979 L423.137478,10.6382979 C424.230828,10.6382979 425.242177,10.8509952 426.144191,11.3029771 C427.073539,11.7549589 427.866218,12.3132895 428.522228,13.031143 C429.178238,13.7489965 429.697579,14.5731988 430.080252,15.4771625 C430.462924,16.4077134 430.654261,17.3382643 430.654261,18.2688151 C430.654261,19.0664302 430.544926,19.8374581 430.326256,20.5553116 C430.107586,21.2731651 429.779581,21.9644315 429.369574,22.5759364 C428.959568,23.1874413 428.46756,23.7191846 427.866218,24.1711665 C427.264875,24.6231483 426.636199,24.9687815 425.925521,25.1814789 L431.610942,34.1413545 L427.292209,34.1413545 L422.044128,25.9525067 L416.440708,25.9525067 L416.440708,34.1413545 L412.613982,34.1413545 L412.613982,34.1945289 Z M416.440708,22.7354594 L423.110144,22.7354594 C423.656819,22.7354594 424.148827,22.6291107 424.586167,22.3898262 C425.023507,22.1505417 425.40618,21.8314957 425.734185,21.4326882 C426.06219,21.0338806 426.308194,20.5553116 426.472196,20.0235682 C426.663532,19.4918249 426.745534,18.9334943 426.745534,18.3219895 C426.745534,17.7370718 426.636199,17.1521541 426.417529,16.6204107 C426.198859,16.0886673 425.925521,15.6366855 425.570182,15.237878 C425.214843,14.8390704 424.804837,14.5200244 424.340163,14.2807399 C423.875489,14.0414554 423.383482,13.9351067 422.891474,13.9351067 L416.413374,13.9351067 L416.413374,22.7354594 L416.440708,22.7354594 Z" id="Shape"></path>
                    <path d="M443.022544,34.1945289 C441.330942,34.1945289 439.773594,33.8425139 438.377351,33.1655621 C436.981108,32.4886103 435.772821,31.5679558 434.77934,30.4306767 C433.785859,29.2933977 433.007185,27.9936502 432.443318,26.5314343 C431.906301,25.0692183 431.610942,23.5799243 431.610942,22.0364742 C431.610942,20.4388679 431.906301,18.8954177 432.470169,17.4332018 C433.060887,15.9709858 433.839561,14.6712383 434.859892,13.5610374 C435.880224,12.4237583 437.088511,11.5301819 438.484754,10.8803081 C439.880997,10.2033563 441.411494,9.87841945 443.049395,9.87841945 C444.740997,9.87841945 446.298345,10.2304344 447.694588,10.9344643 C449.090831,11.6384942 450.272267,12.5862267 451.265748,13.7235058 C452.259229,14.8607849 453.037903,16.1605324 453.574919,17.6227483 C454.111936,19.0849642 454.407295,20.5471802 454.407295,22.0635522 C454.407295,23.6611585 454.111936,25.2046087 453.548068,26.6668246 C452.984201,28.1290406 452.178676,29.4287881 451.158345,30.538989 C450.138013,31.64919 448.929726,32.5427664 447.533483,33.2197183 C446.164091,33.869592 444.660444,34.1945289 443.022544,34.1945289 Z M435.450611,22.0364742 C435.450611,23.1737532 435.638566,24.2568761 435.987627,25.312921 C436.336688,26.3689658 436.846854,27.3166984 437.518124,28.1290406 C438.189395,28.9413827 438.968069,29.5912565 439.907848,30.0786618 C440.847627,30.5660671 441.894809,30.8097698 443.049395,30.8097698 C444.257682,30.8097698 445.331715,30.5660671 446.244643,30.0515837 C447.184422,29.5371003 447.963096,28.8872266 448.607516,28.0478063 C449.251936,27.2083861 449.735251,26.2877316 450.084312,25.2316868 C450.406522,24.20272 450.594477,23.1466752 450.594477,22.0635522 C450.594477,20.9262732 450.406522,19.8160722 450.057461,18.7600273 C449.7084,17.7039825 449.198234,16.783328 448.526964,15.9980639 C447.855693,15.1857217 447.077019,14.5629261 446.13724,14.0755207 C445.197461,13.5881154 444.17713,13.3444128 443.049395,13.3444128 C441.841108,13.3444128 440.767074,13.5881154 439.827295,14.1025988 C438.887517,14.6170822 438.108843,15.266956 437.437572,16.0792981 C436.793152,16.8916403 436.282986,17.8122948 435.933925,18.8683396 C435.638566,19.8973064 435.450611,20.9533512 435.450611,22.0364742 Z" id="Shape"></path>
                    <path d="M467.678313,30.8708054 C468.940467,30.8708054 469.960932,30.6333965 470.793417,30.1585789 C471.625901,29.6837612 472.29726,29.050671 472.780638,28.2593083 C473.29087,27.4679456 473.639977,26.5974465 473.854812,25.5950537 C474.069646,24.5926609 474.177064,23.5638894 474.177064,22.508739 L474.177064,10.6646766 L477.963526,10.6646766 L477.963526,22.508739 C477.963526,24.1178433 477.775545,25.6214325 477.399585,27.0458854 C477.023624,28.4703384 476.405974,29.71014 475.600344,30.7652903 C474.767859,31.8204406 473.72054,32.6645609 472.404677,33.2712723 C471.088814,33.8779838 469.531262,34.1945289 467.705167,34.1945289 C465.798509,34.1945289 464.214103,33.8779838 462.89824,33.2185148 C461.582377,32.5590459 460.535058,31.7149256 459.729428,30.6070178 C458.923797,29.5254887 458.333002,28.2856871 457.983895,26.8612341 C457.634789,25.4631599 457.446809,23.9859495 457.446809,22.4823603 L457.446809,10.6382979 L461.206416,10.6382979 L461.206416,22.4823603 C461.206416,23.5638894 461.313834,24.5926609 461.528669,25.5950537 C461.743503,26.5974465 462.09261,27.4943243 462.602842,28.2593083 C463.113075,29.050671 463.784433,29.6573825 464.616918,30.1322001 C465.395694,30.6333965 466.443013,30.8708054 467.678313,30.8708054 Z" id="Shape"></path>
                    <path d="M482.522796,34.1945289 L482.522796,10.6382979 L492.571513,10.6382979 C493.65202,10.6382979 494.651489,10.8509952 495.542908,11.3029771 C496.461339,11.7549589 497.244707,12.3132895 497.893011,13.031143 C498.541315,13.7489965 499.054556,14.5731988 499.432734,15.4771625 C499.810911,16.4077134 500,17.3382643 500,18.2688151 C500,19.2525404 499.837924,20.2096784 499.486759,21.1402293 C499.135594,22.0707802 498.649366,22.8683952 498.028074,23.5862488 C497.406783,24.3041023 496.650428,24.88902 495.759009,25.3144147 C494.867591,25.7398094 493.895134,25.9525067 492.814627,25.9525067 L486.331584,25.9525067 L486.331584,34.1413545 L482.522796,34.1413545 L482.522796,34.1945289 Z M486.304571,22.7354594 L492.5445,22.7354594 C493.084754,22.7354594 493.570982,22.6291107 494.003185,22.4164134 C494.435388,22.203716 494.813566,21.88467 495.137718,21.4858625 C495.46187,21.087055 495.704984,20.6350731 495.86706,20.1033297 C496.056149,19.5715864 496.137187,18.9866687 496.137187,18.3485766 C496.137187,17.6838974 496.029136,17.0989797 495.840047,16.5672364 C495.650959,16.035493 495.353819,15.5835112 495.002654,15.1847036 C494.651489,14.7858961 494.246299,14.4934373 493.760071,14.2807399 C493.300855,14.0680426 492.814627,13.9616939 492.328399,13.9616939 L486.304571,13.9616939 L486.304571,22.7354594 Z" id="Shape"></path>
                </g>
            </g>
        </g>
    </g>
</svg>