<svg width="200" height="124" viewBox="0 0 200 124" xmlns="http://www.w3.org/2000/svg"><title>Group 2</title><desc>Created with Sketch.</desc><g fill="#fff"><g fill-rule="nonzero"><path d="M85.284 84.462v-62.544h-15.616l-16.282 32.681-16.204-32.681h-15.656v62.544h14.442v-37.417l13.542 27.202h7.75l13.581-27.202v37.417zM97.26 21.918v62.544h44.736v-12.681h-30.294v-49.863zM175.616 51.781v10.489h12.172v1.957c-4.54 5.245-9.589 7.828-15.225 7.828-2.466 0-4.697-.47-6.732-1.409-2.035-.939-3.757-2.231-5.245-3.914-1.487-1.683-2.622-3.64-3.444-5.949-.822-2.309-1.213-4.775-1.213-7.476 0-2.661.391-5.127 1.135-7.397.744-2.309 1.84-4.305 3.249-6.027 1.409-1.722 3.092-3.092 5.049-4.07 1.957-.978 4.149-1.448 6.575-1.448 3.092 0 5.988.783 8.689 2.348 2.661 1.566 4.697 3.757 6.106 6.575l10.763-8.102c-2.192-4.227-5.44-7.554-9.785-9.98-4.344-2.427-9.432-3.64-15.225-3.64-4.384 0-8.532.822-12.329 2.466-3.836 1.644-7.123 3.875-9.902 6.693-2.779 2.818-4.971 6.145-6.575 9.941-1.605 3.836-2.387 7.867-2.387 12.133 0 4.736.783 9.119 2.387 13.072 1.566 3.953 3.757 7.358 6.458 10.176 2.74 2.818 5.91 5.01 9.55 6.575 3.64 1.566 7.515 2.348 11.624 2.348 6.184 0 11.624-2.192 16.36-6.497v15.851h-175.303v-81.996h171.194v-12.133h-183.327v106.262h199.374v-54.677h-23.992z"/></g><path d="M.024 111.932h2.23l3.302 9.718 3.279-9.718h2.207v11.495h-1.479v-6.784c0-.235.005-.623.016-1.166.01-.543.016-1.124.016-1.745l-3.279 9.695h-1.541l-3.302-9.695v.352c0 .282.007.711.02 1.287.013.576.02 1 .02 1.272v6.784h-1.487v-11.495zm19.288 6.784l-1.745-5.078-1.854 5.078h3.599zm-2.559-6.784h1.761l4.171 11.495h-1.706l-1.166-3.443h-4.546l-1.244 3.443h-1.596l4.327-11.495zm7.347 0h1.839l5.806 9.311v-9.311h1.479v11.495h-1.745l-5.892-9.304v9.304h-1.487v-11.495zm16.541-.297c1.08 0 2.014.209 2.801.626 1.142.6 1.841 1.651 2.097 3.153h-1.541c-.188-.84-.576-1.451-1.166-1.835-.589-.383-1.333-.575-2.23-.575-1.064 0-1.96.399-2.688 1.197-.728.798-1.092 1.987-1.092 3.568 0 1.367.3 2.479.9 3.337.6.858 1.578 1.287 2.934 1.287 1.038 0 1.897-.301 2.578-.904.681-.603 1.029-1.577 1.045-2.923h-3.599v-1.291h5.047v6.15h-1.002l-.376-1.479c-.527.579-.994.981-1.401 1.205-.683.386-1.552.579-2.606.579-1.362 0-2.533-.441-3.513-1.322-1.069-1.106-1.604-2.624-1.604-4.554 0-1.925.522-3.456 1.565-4.593.991-1.085 2.274-1.628 3.85-1.628zm12.457-.016c2.029 0 3.532.652 4.507 1.956.762 1.017 1.142 2.319 1.142 3.905 0 1.716-.436 3.143-1.307 4.28-1.022 1.335-2.48 2.003-4.374 2.003-1.768 0-3.159-.584-4.171-1.753-.902-1.127-1.354-2.551-1.354-4.272 0-1.555.386-2.885 1.158-3.991.991-1.419 2.457-2.128 4.397-2.128zm.156 10.751c1.372 0 2.364-.492 2.977-1.475.613-.983.919-2.114.919-3.392 0-1.351-.353-2.439-1.06-3.263-.707-.824-1.673-1.236-2.899-1.236-1.189 0-2.16.408-2.911 1.225-.751.816-1.127 2.02-1.127 3.611 0 1.273.322 2.346.966 3.22.644.874 1.689 1.311 3.134 1.311zm8.365-2.653c.037.652.19 1.182.462 1.588.516.762 1.427 1.142 2.731 1.142.584 0 1.116-.083 1.596-.25.929-.323 1.393-.902 1.393-1.737 0-.626-.196-1.072-.587-1.338-.396-.261-1.017-.488-1.862-.681l-1.557-.352c-1.017-.23-1.737-.483-2.16-.759-.73-.48-1.095-1.197-1.095-2.152 0-1.033.357-1.881 1.072-2.543.715-.662 1.727-.994 3.036-.994 1.205 0 2.229.291 3.071.872.842.582 1.264 1.511 1.264 2.79h-1.463c-.078-.616-.245-1.088-.501-1.416-.475-.6-1.281-.9-2.418-.9-.918 0-1.578.193-1.98.579-.402.386-.603.835-.603 1.346 0 .563.235.975.704 1.236.308.167 1.004.376 2.089.626l1.612.368c.777.177 1.377.42 1.8.728.73.537 1.095 1.317 1.095 2.34 0 1.273-.463 2.183-1.389 2.731-.926.548-2.002.822-3.228.822-1.429 0-2.548-.365-3.357-1.095-.809-.725-1.205-1.708-1.189-2.95h1.463zm10.023-7.786h1.573v11.495h-1.573v-11.495zm4.1 0h1.839l5.806 9.311v-9.311h1.479v11.495h-1.745l-5.892-9.304v9.304h-1.487v-11.495zm16.541-.297c1.08 0 2.014.209 2.801.626 1.142.6 1.841 1.651 2.097 3.153h-1.541c-.188-.84-.576-1.451-1.166-1.835-.589-.383-1.333-.575-2.23-.575-1.064 0-1.96.399-2.688 1.197-.728.798-1.092 1.987-1.092 3.568 0 1.367.3 2.479.9 3.337.6.858 1.578 1.287 2.934 1.287 1.038 0 1.897-.301 2.578-.904.681-.603 1.029-1.577 1.045-2.923h-3.599v-1.291h5.047v6.15h-1.002l-.376-1.479c-.527.579-.994.981-1.401 1.205-.683.386-1.552.579-2.606.579-1.362 0-2.533-.441-3.513-1.322-1.069-1.106-1.604-2.624-1.604-4.554 0-1.925.522-3.456 1.565-4.593.991-1.085 2.274-1.628 3.85-1.628zm11.948.297h1.557v10.125h5.822v1.369h-7.379v-11.495zm14.812 6.784l-1.745-5.078-1.854 5.078h3.599zm-2.559-6.784h1.761l4.171 11.495h-1.706l-1.166-3.443h-4.546l-1.244 3.443h-1.596l4.327-11.495zm7.52 0l2.167 9.351 2.598-9.351h1.69l2.598 9.351 2.167-9.351h1.706l-3.02 11.495h-1.635l-2.653-9.531-2.668 9.531h-1.635l-3.005-11.495h1.69zm23.787-.297c1.08 0 2.014.209 2.801.626 1.142.6 1.841 1.651 2.097 3.153h-1.541c-.188-.84-.576-1.451-1.166-1.835-.589-.383-1.333-.575-2.23-.575-1.064 0-1.96.399-2.688 1.197-.728.798-1.092 1.987-1.092 3.568 0 1.367.3 2.479.9 3.337.6.858 1.578 1.287 2.934 1.287 1.038 0 1.897-.301 2.578-.904.681-.603 1.029-1.577 1.045-2.923h-3.599v-1.291h5.047v6.15h-1.002l-.376-1.479c-.527.579-.994.981-1.401 1.205-.683.386-1.552.579-2.606.579-1.362 0-2.533-.441-3.513-1.322-1.069-1.106-1.604-2.624-1.604-4.554 0-1.925.522-3.456 1.565-4.593.991-1.085 2.274-1.628 3.85-1.628zm12.84 5.563c.73 0 1.308-.146 1.733-.438.425-.292.638-.819.638-1.581 0-.819-.297-1.377-.892-1.674-.318-.156-.743-.235-1.275-.235h-3.803v3.928h3.599zm-5.156-5.266h5.321c.876 0 1.599.128 2.167.383 1.08.49 1.62 1.395 1.62 2.715 0 .689-.142 1.252-.426 1.69-.284.438-.682.79-1.193 1.056.449.183.786.423 1.013.72.227.297.353.78.379 1.448l.055 1.541c.016.438.052.764.11.978.094.365.261.6.501.704v.258h-1.909c-.052-.099-.094-.227-.125-.383s-.057-.459-.078-.908l-.094-1.917c-.037-.751-.316-1.255-.837-1.51-.297-.141-.764-.211-1.401-.211h-3.545v4.93h-1.557v-11.495zm16.346-.313c2.029 0 3.532.652 4.507 1.956.762 1.017 1.142 2.319 1.142 3.905 0 1.716-.436 3.143-1.307 4.28-1.022 1.335-2.48 2.003-4.374 2.003-1.768 0-3.159-.584-4.171-1.753-.902-1.127-1.354-2.551-1.354-4.272 0-1.555.386-2.885 1.158-3.991.991-1.419 2.457-2.128 4.397-2.128zm.156 10.751c1.372 0 2.364-.492 2.977-1.475.613-.983.919-2.114.919-3.392 0-1.351-.353-2.439-1.06-3.263-.707-.824-1.673-1.236-2.899-1.236-1.189 0-2.16.408-2.911 1.225-.751.816-1.127 2.02-1.127 3.611 0 1.273.322 2.346.966 3.22.644.874 1.689 1.311 3.134 1.311zm9.038-10.438v7.105c0 .835.156 1.528.469 2.081.464.835 1.247 1.252 2.347 1.252 1.32 0 2.217-.451 2.692-1.354.256-.49.383-1.15.383-1.98v-7.105h1.581v6.455c0 1.414-.19 2.501-.571 3.263-.699 1.388-2.019 2.081-3.959 2.081-1.941 0-3.258-.694-3.951-2.081-.381-.762-.571-1.849-.571-3.263v-6.455h1.581zm10.031 0h5.172c1.022 0 1.847.288 2.473.865.626.576.939 1.386.939 2.43 0 .897-.279 1.678-.837 2.344-.558.665-1.416.998-2.574.998h-3.615v4.859h-1.557v-11.495zm7.011 3.302c0-.845-.313-1.419-.939-1.721-.344-.162-.816-.243-1.416-.243h-3.099v3.983h3.099c.699 0 1.266-.149 1.702-.446.436-.297.653-.822.653-1.573z"/></g></svg>